<svg width="32" height="26" viewBox="0 0 32 26" fill="none" xmlns="http://www.w3.org/2000/svg">
<path d="M32 3.05927C30.8222 3.59465 29.5526 3.94646 28.2371 4.11472C29.5832 3.30402 30.6233 2.01912 31.1128 0.474187C29.8432 1.23901 28.4359 1.77438 26.9522 2.08031C25.7438 0.764818 24.0459 0 22.1185 0C18.5239 0 15.587 2.9369 15.587 6.56214C15.587 7.08222 15.6482 7.587 15.7553 8.06119C10.3098 7.78585 5.4608 5.17017 2.23327 1.20841C1.6673 2.17208 1.34608 3.30402 1.34608 4.49713C1.34608 6.77629 2.49331 8.79541 4.26769 9.94264C3.18164 9.94264 2.17208 9.63671 1.2849 9.17782V9.22371C1.2849 12.4054 3.54876 15.0669 6.54685 15.6635C5.58446 15.928 4.57367 15.9647 3.59465 15.7706C4.01011 17.0745 4.82377 18.2155 5.92125 19.0332C7.01873 19.8508 8.34485 20.3039 9.71319 20.3289C7.39376 22.1652 4.51856 23.1578 1.56023 23.1434C1.04015 23.1434 0.520077 23.1128 0 23.0516C2.90631 24.9178 6.36329 26.0038 10.065 26.0038C22.1185 26.0038 28.7419 16 28.7419 7.32696C28.7419 7.03633 28.7419 6.76099 28.7266 6.47036C30.0115 5.55258 31.1128 4.39006 32 3.05927Z" fill="#f2fff6"/>
</svg>
